
<svg width="1200" height="400" viewBox="0 0 1200 400" fill="none" xmlns="http://www.w3.org/2000/svg">
  <rect width="1200" height="400" fill="#4F46E5" />
  <path d="M0 0H1200V400H0V0Z" fill="url(#paint0_linear)" />
  <path d="M1059.96 286.71C1106.36 286.71 1143.93 249.137 1143.93 202.741C1143.93 156.345 1106.36 118.771 1059.96 118.771C1013.57 118.771 975.994 156.345 975.994 202.741C975.994 249.137 1013.57 286.71 1059.96 286.71Z" fill="#6366F1" />
  <path d="M161.771 269.907C215.217 269.907 258.541 226.583 258.541 173.137C258.541 119.691 215.217 76.3667 161.771 76.3667C108.325 76.3667 65 119.691 65 173.137C65 226.583 108.325 269.907 161.771 269.907Z" fill="#4F46E5" />
  <path d="M700 350C808.66 350 896.5 262.16 896.5 153.5C896.5 44.8401 808.66 -43 700 -43C591.34 -43 503.5 44.8401 503.5 153.5C503.5 262.16 591.34 350 700 350Z" fill="#818CF8" fill-opacity="0.6" />
  <defs>
    <linearGradient id="paint0_linear" x1="600" y1="0" x2="600" y2="400" gradientUnits="userSpaceOnUse">
      <stop stop-color="#4F46E5" />
      <stop offset="1" stop-color="#6366F1" />
    </linearGradient>
  </defs>
</svg>
